<svg width="100" xmlns="http://www.w3.org/2000/svg" height="50" id="screenshot-e0708b5f-0f5f-8067-8006-b6a27c617336" viewBox="0 0 100 50" xmlns:xlink="http://www.w3.org/1999/xlink" fill="none" version="1.1"><style>@font-face {
    font-family: 'sourcesanspro';
    font-style: normal;
    font-weight: 400;
    font-display: block;
    src: url(http://localhost:6080/fonts/sourcesanspro-regular.woff) format('woff');
  }</style><g id="shape-e0708b5f-0f5f-8067-8006-b6a27c617336"><defs><clipPath id="frame-clip-e0708b5f-0f5f-8067-8006-b6a27c617336-render-1" class="frame-clip frame-clip-def"><rect rx="6" ry="6" x="0" y="0" width="100" height="50" transform="matrix(1.000000, 0.000000, 0.000000, 1.000000, 0.000000, 0.000000)"/></clipPath></defs><g class="frame-container-wrapper"><g class="frame-container-blur"><g class="frame-container-shadows"><g clip-path="url(#frame-clip-e0708b5f-0f5f-8067-8006-b6a27c617336-render-1)" fill="none"><g class="fills" id="fills-e0708b5f-0f5f-8067-8006-b6a27c617336"><rect width="100" height="50" class="frame-background" x="0" transform="matrix(1.000000, 0.000000, 0.000000, 1.000000, 0.000000, 0.000000)" style="fill: rgb(235, 227, 202); fill-opacity: 1;" ry="6" rx="6" y="0"/></g><g class="frame-children"><g id="shape-c816d136-e577-80f1-8006-c2aaeb1d572f" width="800" height="800" rx="0" ry="0" style="display: none; fill: rgb(0, 0, 0);"><g id="shape-c816d136-e577-80f1-8006-c2aaeb1eae42" style="display: none;"><g class="fills" id="fills-c816d136-e577-80f1-8006-c2aaeb1eae42"><rect width="34" height="34" x="6" transform="matrix(1.000000, 0.000000, 0.000000, 1.000000, 0.000000, 0.000000)" style="fill: none;" ry="0" fill="none" rx="0" y="8"/></g></g><g id="shape-c816d136-e577-80f1-8006-c2aaeb1f364c"><g class="fills" id="fills-c816d136-e577-80f1-8006-c2aaeb1f364c"><path d="M25.833335876464844,20.75L25.833335876464844,29.25M20.166671752929688,20.75L20.166671752929688,29.25M23,37.75C15.9583740234375,37.75,10.25,32.0416259765625,10.25,25C10.25,17.9583740234375,15.9583740234375,12.25,23,12.25C30.04168701171875,12.25,35.75,17.9583740234375,35.75,25C35.75,32.0416259765625,30.04168701171875,37.75,23,37.75Z" fill="none" stroke-linecap="round" stroke-linejoin="round" style="fill: none;"/></g><g fill="none" stroke-linecap="round" stroke-linejoin="round" id="strokes-21fc5fc2-c09e-80c3-8006-fdc26f484ca5-c816d136-e577-80f1-8006-c2aaeb1f364c" class="strokes"><g class="stroke-shape"><path d="M25.833335876464844,20.75L25.833335876464844,29.25M20.166671752929688,20.75L20.166671752929688,29.25M23,37.75C15.9583740234375,37.75,10.25,32.0416259765625,10.25,25C10.25,17.9583740234375,15.9583740234375,12.25,23,12.25C30.04168701171875,12.25,35.75,17.9583740234375,35.75,25C35.75,32.0416259765625,30.04168701171875,37.75,23,37.75Z" style="fill: none; stroke-width: 2; stroke: rgb(0, 0, 0); stroke-opacity: 1;"/></g></g></g></g><g id="shape-c816d136-e577-80f1-8006-c3054672ea85" style="display: none;"><g transform="matrix(1.000000, 0.000000, 0.000000, 1.000000, 0.000000, 0.000000)" class="text-container" x="44" y="19" width="40" height="19" rx="0" ry="0"><defs><pattern patternUnits="objectBoundingBox" width="38.5" height="18" id="fill-0-render-5-0"><g><rect width="38.5" height="18" style="fill: rgb(0, 0, 0); fill-opacity: 1;"/></g></pattern></defs><g class="fills" id="fills-c816d136-e577-80f1-8006-c3054672ea85"><text x="44" y="36" dominant-baseline="ideographic" textLength="38.5" lengthAdjust="spacingAndGlyphs" style="text-transform: none; font-family: sourcesanspro; letter-spacing: normal; font-style: normal; font-weight: 400; white-space: pre; font-size: 14px; text-decoration: rgb(0, 0, 0); direction: ltr; fill: rgb(0, 0, 0); fill-opacity: 1;">PAUSE</text></g></g></g></g></g></g></g></g></g></svg>