<svg width="34" xmlns="http://www.w3.org/2000/svg" height="34" id="screenshot-c816d136-e577-80f1-8006-c2aaeb1d572f" viewBox="0 0 34 34" xmlns:xlink="http://www.w3.org/1999/xlink" fill="none" version="1.1"><g id="shape-c816d136-e577-80f1-8006-c2aaeb1d572f" width="800" height="800" rx="0" ry="0" style="fill: rgb(0, 0, 0);"><g id="shape-c816d136-e577-80f1-8006-c2aaeb1eae42" style="display: none;"><g class="fills" id="fills-c816d136-e577-80f1-8006-c2aaeb1eae42"><rect width="34" height="34" x="0" transform="matrix(1.000000, 0.000000, 0.000000, 1.000000, 0.000000, 0.000000)" style="fill: none;" ry="0" fill="none" rx="0" y="0"/></g></g><g id="shape-c816d136-e577-80f1-8006-c2aaeb1f364c"><g class="fills" id="fills-c816d136-e577-80f1-8006-c2aaeb1f364c"><path d="M19.833335876464844,12.75L19.833335876464844,21.25M14.166671752929688,12.75L14.166671752929688,21.25M17,29.75C9.9583740234375,29.75,4.25,24.0416259765625,4.25,17C4.25,9.9583740234375,9.9583740234375,4.25,17,4.25C24.04168701171875,4.25,29.75,9.9583740234375,29.75,17C29.75,24.0416259765625,24.04168701171875,29.75,17,29.75Z" fill="none" stroke-linecap="round" stroke-linejoin="round" style="fill: none;"/></g><g fill="none" stroke-linecap="round" stroke-linejoin="round" id="strokes-42824282-accb-8087-8006-fdc2dc68a879-c816d136-e577-80f1-8006-c2aaeb1f364c" class="strokes"><g class="stroke-shape"><path d="M19.833335876464844,12.75L19.833335876464844,21.25M14.166671752929688,12.75L14.166671752929688,21.25M17,29.75C9.9583740234375,29.75,4.25,24.0416259765625,4.25,17C4.25,9.9583740234375,9.9583740234375,4.25,17,4.25C24.04168701171875,4.25,29.75,9.9583740234375,29.75,17C29.75,24.0416259765625,24.04168701171875,29.75,17,29.75Z" style="fill: none; stroke-width: 2; stroke: rgb(0, 0, 0); stroke-opacity: 1;"/></g></g></g></g></svg>