<svg width="34" xmlns="http://www.w3.org/2000/svg" height="34" id="screenshot-c816d136-e577-80f1-8006-c2aba5d26e17" viewBox="0 0 34 34" xmlns:xlink="http://www.w3.org/1999/xlink" fill="none" version="1.1"><g id="shape-c816d136-e577-80f1-8006-c2aba5d26e17" width="800" height="800" rx="0" ry="0" style="fill: rgb(0, 0, 0);"><g id="shape-c816d136-e577-80f1-8006-c2aba5d3d692" style="display: none;"><g class="fills" id="fills-c816d136-e577-80f1-8006-c2aba5d3d692"><rect width="34" height="34" x="0" transform="matrix(1.000000, 0.000000, 0.000000, 1.000000, 0.000000, 0.000000)" style="fill: none;" ry="0" fill="none" rx="0" y="0"/></g></g><g id="shape-c816d136-e577-80f1-8006-c2aba5d44088"><g class="fills" id="fills-c816d136-e577-80f1-8006-c2aba5d44088"><path d="M12.75,31.1666259765625L21.25,31.1666259765625C28.333328247070312,31.1666259765625,31.166671752929688,28.3333740234375,31.166671752929688,21.25L31.166671752929688,12.75C31.166671752929688,5.6666259765625,28.333328247070312,2.8333740234375,21.25,2.8333740234375L12.75,2.8333740234375C5.6666717529296875,2.8333740234375,2.8333282470703125,5.6666259765625,2.8333282470703125,12.75L2.8333282470703125,21.25C2.8333282470703125,28.3333740234375,5.6666717529296875,31.1666259765625,12.75,31.1666259765625Z" fill="none" stroke-linecap="round" stroke-linejoin="round" style="fill: none;"/></g><g fill="none" stroke-linecap="round" stroke-linejoin="round" id="strokes-683b182e-60c6-8078-8006-fdc2ef1bca86-c816d136-e577-80f1-8006-c2aba5d44088" class="strokes"><g class="stroke-shape"><path d="M12.75,31.1666259765625L21.25,31.1666259765625C28.333328247070312,31.1666259765625,31.166671752929688,28.3333740234375,31.166671752929688,21.25L31.166671752929688,12.75C31.166671752929688,5.6666259765625,28.333328247070312,2.8333740234375,21.25,2.8333740234375L12.75,2.8333740234375C5.6666717529296875,2.8333740234375,2.8333282470703125,5.6666259765625,2.8333282470703125,12.75L2.8333282470703125,21.25C2.8333282470703125,28.3333740234375,5.6666717529296875,31.1666259765625,12.75,31.1666259765625Z" style="fill: none; stroke-width: 1.5; stroke: rgb(41, 45, 50); stroke-opacity: 1;"/></g></g></g><g id="shape-c816d136-e577-80f1-8006-c2aba5d4b0b5"><g class="fills" id="fills-c816d136-e577-80f1-8006-c2aba5d4b0b5"><path d="M22.057357788085938,26.20849609375L22.057357788085938,20.6834716796875" fill="none" stroke-miterlimit="10" stroke-linecap="round" stroke-linejoin="round" style="fill: none;"/></g><g fill="none" stroke-miterlimit="10" stroke-linecap="round" stroke-linejoin="round" id="strokes-683b182e-60c6-8078-8006-fdc2ef1ca41e-c816d136-e577-80f1-8006-c2aba5d4b0b5" class="strokes"><g class="stroke-shape"><path d="M22.057357788085938,26.20849609375L22.057357788085938,20.6834716796875" style="fill: none; stroke-width: 1.5; stroke: rgb(41, 45, 50); stroke-opacity: 1;"/></g></g></g><g id="shape-c816d136-e577-80f1-8006-c2aba5d4d779"><g class="fills" id="fills-c816d136-e577-80f1-8006-c2aba5d4d779"><path d="M22.057357788085938,10.5540771484375L22.057357788085938,7.7916259765625" fill="none" stroke-miterlimit="10" stroke-linecap="round" stroke-linejoin="round" style="fill: none;"/></g><g fill="none" stroke-miterlimit="10" stroke-linecap="round" stroke-linejoin="round" id="strokes-683b182e-60c6-8078-8006-fdc2ef1d38e6-c816d136-e577-80f1-8006-c2aba5d4d779" class="strokes"><g class="stroke-shape"><path d="M22.057357788085938,10.5540771484375L22.057357788085938,7.7916259765625" style="fill: none; stroke-width: 1.5; stroke: rgb(41, 45, 50); stroke-opacity: 1;"/></g></g></g><g id="shape-c816d136-e577-80f1-8006-c2aba5d51244"><g class="fills" id="fills-c816d136-e577-80f1-8006-c2aba5d51244"><path d="M22.0574951171875,17.9208984375C24.091690063476562,17.9208984375,25.740829467773438,16.2716064453125,25.740829467773438,14.237548828125C25.740829467773438,12.203125,24.091690063476562,10.5540771484375,22.0574951171875,10.5540771484375C20.023162841796875,10.5540771484375,18.374168395996094,12.203125,18.374168395996094,14.237548828125C18.374168395996094,16.2716064453125,20.023162841796875,17.9208984375,22.0574951171875,17.9208984375Z" fill="none" stroke-miterlimit="10" stroke-linecap="round" stroke-linejoin="round" style="fill: none;"/></g><g fill="none" stroke-miterlimit="10" stroke-linecap="round" stroke-linejoin="round" id="strokes-683b182e-60c6-8078-8006-fdc2ef1d77ae-c816d136-e577-80f1-8006-c2aba5d51244" class="strokes"><g class="stroke-shape"><path d="M22.0574951171875,17.9208984375C24.091690063476562,17.9208984375,25.740829467773438,16.2716064453125,25.740829467773438,14.237548828125C25.740829467773438,12.203125,24.091690063476562,10.5540771484375,22.0574951171875,10.5540771484375C20.023162841796875,10.5540771484375,18.374168395996094,12.203125,18.374168395996094,14.237548828125C18.374168395996094,16.2716064453125,20.023162841796875,17.9208984375,22.0574951171875,17.9208984375Z" style="fill: none; stroke-width: 1.5; stroke: rgb(41, 45, 50); stroke-opacity: 1;"/></g></g></g><g id="shape-c816d136-e577-80f1-8006-c2aba5d55592"><g class="fills" id="fills-c816d136-e577-80f1-8006-c2aba5d55592"><path d="M11.94256591796875,26.2083740234375L11.94256591796875,23.4459228515625" fill="none" stroke-miterlimit="10" stroke-linecap="round" stroke-linejoin="round" style="fill: none;"/></g><g fill="none" stroke-miterlimit="10" stroke-linecap="round" stroke-linejoin="round" id="strokes-683b182e-60c6-8078-8006-fdc2ef1dc832-c816d136-e577-80f1-8006-c2aba5d55592" class="strokes"><g class="stroke-shape"><path d="M11.94256591796875,26.2083740234375L11.94256591796875,23.4459228515625" style="fill: none; stroke-width: 1.5; stroke: rgb(41, 45, 50); stroke-opacity: 1;"/></g></g></g><g id="shape-c816d136-e577-80f1-8006-c2aba5d5b4bb"><g class="fills" id="fills-c816d136-e577-80f1-8006-c2aba5d5b4bb"><path d="M11.94256591796875,13.316650390625L11.94256591796875,7.7916259765625" fill="none" stroke-miterlimit="10" stroke-linecap="round" stroke-linejoin="round" style="fill: none;"/></g><g fill="none" stroke-miterlimit="10" stroke-linecap="round" stroke-linejoin="round" id="strokes-683b182e-60c6-8078-8006-fdc2ef1e5a67-c816d136-e577-80f1-8006-c2aba5d5b4bb" class="strokes"><g class="stroke-shape"><path d="M11.94256591796875,13.316650390625L11.94256591796875,7.7916259765625" style="fill: none; stroke-width: 1.5; stroke: rgb(41, 45, 50); stroke-opacity: 1;"/></g></g></g><g id="shape-c816d136-e577-80f1-8006-c2aba5d61b73"><g class="fills" id="fills-c816d136-e577-80f1-8006-c2aba5d61b73"><path d="M11.94244384765625,23.4459228515625C13.9766845703125,23.4459228515625,15.625823974609375,21.796875,15.625823974609375,19.7625732421875C15.625823974609375,17.7283935546875,13.9766845703125,16.079345703125,11.94244384765625,16.079345703125C9.908203125,16.079345703125,8.259109497070312,17.7283935546875,8.259109497070312,19.7625732421875C8.259109497070312,21.796875,9.908203125,23.4459228515625,11.94244384765625,23.4459228515625Z" fill="none" stroke-miterlimit="10" stroke-linecap="round" stroke-linejoin="round" style="fill: none;"/></g><g fill="none" stroke-miterlimit="10" stroke-linecap="round" stroke-linejoin="round" id="strokes-683b182e-60c6-8078-8006-fdc2ef1ef1b0-c816d136-e577-80f1-8006-c2aba5d61b73" class="strokes"><g class="stroke-shape"><path d="M11.94244384765625,23.4459228515625C13.9766845703125,23.4459228515625,15.625823974609375,21.796875,15.625823974609375,19.7625732421875C15.625823974609375,17.7283935546875,13.9766845703125,16.079345703125,11.94244384765625,16.079345703125C9.908203125,16.079345703125,8.259109497070312,17.7283935546875,8.259109497070312,19.7625732421875C8.259109497070312,21.796875,9.908203125,23.4459228515625,11.94244384765625,23.4459228515625Z" style="fill: none; stroke-width: 1.5; stroke: rgb(41, 45, 50); stroke-opacity: 1;"/></g></g></g></g></svg>