<svg width="34" xmlns="http://www.w3.org/2000/svg" height="34" id="screenshot-c816d136-e577-80f1-8006-c2a9fb151efd" viewBox="0 0 34 34" xmlns:xlink="http://www.w3.org/1999/xlink" fill="none" version="1.1"><g id="shape-c816d136-e577-80f1-8006-c2a9fb151efd" width="800" height="800" rx="0" ry="0" style="fill: rgb(0, 0, 0);"><g id="shape-c816d136-e577-80f1-8006-c2a9fb1792c0" style="display: none;"><g class="fills" id="fills-c816d136-e577-80f1-8006-c2a9fb1792c0"><rect width="34" height="34" x="0" transform="matrix(1.000000, 0.000000, 0.000000, 1.000000, 0.000000, 0.000000)" style="fill: none;" ry="0" fill="none" rx="0" y="0"/></g></g><g id="shape-c816d136-e577-80f1-8006-c2a9fb181f93" rx="0" ry="0" style="fill: rgb(0, 0, 0);"><g id="shape-c816d136-e577-80f1-8006-c2a9fb18938b"><g class="fills" id="fills-c816d136-e577-80f1-8006-c2a9fb18938b"><path d="M5,1.9930419921875C5,1.4429931640625,5.4499969482421875,1,5.9949951171875,1L23.00499725341797,1C23.55500030517578,1,24.345001220703125,1.2750244140625,24.78099822998047,1.625L28.22100067138672,4.375C28.6510009765625,4.719970703125,29.000999450683594,5.43994140625,29.000999450683594,5.9969482421875L29.000999450683594,32.0030517578125C29.000999450683594,32.552978515625,28.554000854492188,33,28.000999450683594,33L6,33C5.447998046875,33,5,32.5479736328125,5,32.0069580078125L5,1.9930419921875Z" fill-rule="evenodd" fill="none" style="fill: none;"/></g><g fill-rule="evenodd" fill="none" id="strokes-d4a342b3-1e75-8091-8006-fdc3007bb18f-c816d136-e577-80f1-8006-c2a9fb18938b" class="strokes"><g class="stroke-shape"><path d="M5,1.9930419921875C5,1.4429931640625,5.4499969482421875,1,5.9949951171875,1L23.00499725341797,1C23.55500030517578,1,24.345001220703125,1.2750244140625,24.78099822998047,1.625L28.22100067138672,4.375C28.6510009765625,4.719970703125,29.000999450683594,5.43994140625,29.000999450683594,5.9969482421875L29.000999450683594,32.0030517578125C29.000999450683594,32.552978515625,28.554000854492188,33,28.000999450683594,33L6,33C5.447998046875,33,5,32.5479736328125,5,32.0069580078125L5,1.9930419921875Z" style="fill: none; stroke-width: 2; stroke: rgb(71, 71, 71); stroke-opacity: 1;"/></g></g></g><g id="shape-c816d136-e577-80f1-8006-c2a9fb18de2a"><g class="fills" id="fills-c816d136-e577-80f1-8006-c2a9fb18de2a"><path d="M22,2L23,2L23,8L22,8Z" fill-rule="evenodd" style="fill: rgb(71, 71, 71);"/></g></g><g id="shape-c816d136-e577-80f1-8006-c2a9fb190bee"><g class="fills" id="fills-c816d136-e577-80f1-8006-c2a9fb190bee"><path d="M22,7L28,7L28,8L22,8Z" fill-rule="evenodd" style="fill: rgb(71, 71, 71);"/></g></g><g id="shape-c816d136-e577-80f1-8006-c2a9fb190bef" rx="0" ry="0" style="fill: rgb(0, 0, 0);"><g id="shape-c816d136-e577-80f1-8006-c2a9fb19b1f4"><g class="fills" id="fills-c816d136-e577-80f1-8006-c2a9fb19b1f4"><path d="M13,12L14,12L14,22L13,22Z" fill-rule="evenodd" style="fill: rgb(87, 87, 87);"/></g></g><g id="shape-c816d136-e577-80f1-8006-c2a9fb19b1f5"><g class="fills" id="fills-c816d136-e577-80f1-8006-c2a9fb19b1f5"><path d="M11,18L12,18L12,22L11,22Z" fill-rule="evenodd" style="fill: rgb(87, 87, 87);"/></g></g><g id="shape-c816d136-e577-80f1-8006-c2a9fb19d16e"><g class="fills" id="fills-c816d136-e577-80f1-8006-c2a9fb19d16e"><path d="M17,17L18,17L18,22L17,22Z" fill-rule="evenodd" style="fill: rgb(87, 87, 87);"/></g></g><g id="shape-c816d136-e577-80f1-8006-c2a9fb1a0ceb"><g class="fills" id="fills-c816d136-e577-80f1-8006-c2a9fb1a0ceb"><path d="M21,20L22,20L22,22L21,22Z" fill-rule="evenodd" style="fill: rgb(87, 87, 87);"/></g></g><g id="shape-c816d136-e577-80f1-8006-c2a9fb1a4278"><g class="fills" id="fills-c816d136-e577-80f1-8006-c2a9fb1a4278"><path d="M19,14L20,14L20,22L19,22Z" fill-rule="evenodd" style="fill: rgb(87, 87, 87);"/></g></g><g id="shape-c816d136-e577-80f1-8006-c2a9fb1b1e3d"><g class="fills" id="fills-c816d136-e577-80f1-8006-c2a9fb1b1e3d"><path d="M15,15L16,15L16,22L15,22Z" fill-rule="evenodd" style="fill: rgb(87, 87, 87);"/></g></g></g></g></g></svg>