<svg width="25" xmlns="http://www.w3.org/2000/svg" height="25" id="screenshot-c816d136-e577-80f1-8006-c29e63ee4897" viewBox="0 0 25 25" xmlns:xlink="http://www.w3.org/1999/xlink" fill="none" version="1.1"><g id="shape-c816d136-e577-80f1-8006-c29e63ee4897" height="800" width="800" xml:space="preserve" rx="0" ry="0" style="fill: rgb(0, 0, 0);"><g id="shape-c816d136-e577-80f1-8006-c29e63ee489c" style="display: none;"><g class="fills" id="fills-c816d136-e577-80f1-8006-c29e63ee489c"><rect width="25" height="25" x="0" transform="matrix(1.000000, 0.000000, 0.000000, 1.000000, 0.000000, 0.000000)" style="fill: none;" ry="0" fill="none" rx="0" y="0"/></g></g><g id="shape-c816d136-e577-80f1-8006-c29e63ee489d"><g class="fills" id="fills-c816d136-e577-80f1-8006-c29e63ee489d"><path d="M17.277923583984375,13.607666015625L13.60296630859375,13.607666015625L13.60296630859375,9.932373046875C13.60296630859375,9.3232421875,13.109130859375,8.82958984375,12.49993896484375,8.82958984375C11.89080810546875,8.82958984375,11.39697265625,9.3232421875,11.39697265625,9.932373046875L11.39697265625,14.71044921875C11.39697265625,15.319580078125,11.89080810546875,15.8134765625,12.49993896484375,15.8134765625L17.277862548828125,15.8134765625C17.886993408203125,15.8134765625,18.38079833984375,15.319580078125,18.38079833984375,14.71044921875C18.380859375,14.1015625,17.887054443359375,13.607666015625,17.277923583984375,13.607666015625Z"/></g></g><g id="shape-c816d136-e577-80f1-8006-c29e63ee489e"><g class="fills" id="fills-c816d136-e577-80f1-8006-c29e63ee489e"><path d="M19.635711669921875,7.29345703125L21.00042724609375,5.928955078125C21.43121337890625,5.498291015625,21.43121337890625,4.7998046875,21.00042724609375,4.369140625C20.569854736328125,3.938232421875,19.871490478515625,3.9384765625,19.440643310546875,4.369140625L17.8779296875,5.931640625C16.60809326171875,5.150390625,15.15679931640625,4.63720703125,13.60296630859375,4.470947265625L13.60296630859375,2.205810546875L16.911773681640625,2.205810546875C17.5208740234375,2.205810546875,18.01470947265625,1.712158203125,18.01470947265625,1.102783203125C18.01470947265625,0.49365234375,17.5208740234375,0,16.911773681640625,0L8.088226318359375,0C7.4791259765625,0,6.98529052734375,0.49365234375,6.98529052734375,1.102783203125C6.98529052734375,1.712158203125,7.4791259765625,2.205810546875,8.088226318359375,2.205810546875L11.39703369140625,2.205810546875L11.39703369140625,4.470947265625C9.84320068359375,4.63720703125,8.391845703125,5.150390625,7.121917724609375,5.931640625L5.559356689453125,4.369140625C5.12860107421875,3.938232421875,4.4302978515625,3.9384765625,3.99957275390625,4.369140625C3.56878662109375,4.7998046875,3.56878662109375,5.498291015625,3.99957275390625,5.928955078125L5.364288330078125,7.293701171875C3.41845703125,9.16748046875,2.20587158203125,11.797607421875,2.20587158203125,14.705810546875C2.20587158203125,20.382080078125,6.823822021484375,25,12.5,25C18.176177978515625,25,22.79412841796875,20.382080078125,22.79412841796875,14.705810546875C22.79412841796875,11.797607421875,21.58154296875,9.16748046875,19.635711669921875,7.29345703125ZM12.5,22.794189453125C8.0401611328125,22.794189453125,4.411773681640625,19.165771484375,4.411773681640625,14.705810546875C4.411773681640625,10.245849609375,8.0401611328125,6.61767578125,12.5,6.61767578125C16.9598388671875,6.61767578125,20.588226318359375,10.245849609375,20.588226318359375,14.705810546875C20.588226318359375,19.165771484375,16.9598388671875,22.794189453125,12.5,22.794189453125Z"/></g></g></g></svg>